<svg xmlns="http://www.w3.org/2000/svg" version="1.1" xmlns:xlink="http://www.w3.org/1999/xlink" width="124.44" height="144"><svg viewBox="0 0 124.44 144.00" id="SvgjsSvg1205" version="1.1" sodipodi:docname="logo_edit.svg" inkscape:version="1.2.2 (732a01da63, 2022-12-09)" xmlns:inkscape="http://www.inkscape.org/namespaces/inkscape" xmlns:sodipodi="http://sodipodi.sourceforge.net/DTD/sodipodi-0.dtd" xmlns="http://www.w3.org/2000/svg" xmlns:svg="http://www.w3.org/2000/svg">
  <sodipodi:namedview id="SvgjsSodipodi:namedview1204" pagecolor="#ffffff" bordercolor="#666666" borderopacity="1.0" inkscape:showpageshadow="2" inkscape:pageopacity="0.0" inkscape:pagecheckerboard="0" inkscape:deskcolor="#d1d1d1" showgrid="false" inkscape:zoom="6.7847222" inkscape:cx="62.272262" inkscape:cy="58.145343" inkscape:window-width="1600" inkscape:window-height="1201" inkscape:window-x="2391" inkscape:window-y="56" inkscape:window-maximized="1" inkscape:current-layer="logo"></sodipodi:namedview>
  <defs id="SvgjsDefs1203">
    <style type="text/css" id="SvgjsStyle1202">
    line, polyline, path, rect, circle {
      fill: none;
      stroke: #000000;
      stroke-linecap: round;
      stroke-linejoin: round;
      stroke-miterlimit: 10.00;
    }
  </style>
    <clipPath clipPathUnits="userSpaceOnUse" id="SvgjsClipPath1201">
      <g id="SvgjsG1200">
        <rect x="8.2200003" y="5.48" width="130.3" height="130.3" id="SvgjsRect1199"></rect>
      </g>
    </clipPath>
    <clipPath clipPathUnits="userSpaceOnUse" id="SvgjsClipPath1198">
      <g id="SvgjsG1197">
        <rect x="8.2200003" y="5.48" width="130.3" height="130.3" id="SvgjsRect1196"></rect>
      </g>
    </clipPath>
    <clipPath clipPathUnits="userSpaceOnUse" id="SvgjsClipPath1195">
      <g id="SvgjsG1194">
        <rect x="8.2200003" y="5.48" width="130.3" height="130.3" id="SvgjsRect1193"></rect>
      </g>
    </clipPath>
    <clipPath clipPathUnits="userSpaceOnUse" id="SvgjsClipPath1192">
      <g id="SvgjsG1191">
        <rect x="8.2200003" y="5.48" width="130.3" height="130.3" id="SvgjsRect1190"></rect>
      </g>
    </clipPath>
    <clipPath clipPathUnits="userSpaceOnUse" id="SvgjsClipPath1189">
      <g id="SvgjsG1188">
        <rect x="8.2200003" y="5.48" width="130.3" height="130.3" id="SvgjsRect1187"></rect>
      </g>
    </clipPath>
    <clipPath clipPathUnits="userSpaceOnUse" id="SvgjsClipPath1186">
      <g id="SvgjsG1185">
        <rect x="8.2200003" y="5.48" width="130.3" height="130.3" id="SvgjsRect1184"></rect>
      </g>
    </clipPath>
    <clipPath clipPathUnits="userSpaceOnUse" id="SvgjsClipPath1183">
      <g id="SvgjsG1182">
        <rect x="8.2200003" y="5.48" width="130.3" height="130.3" id="SvgjsRect1181"></rect>
      </g>
    </clipPath>
    <clipPath clipPathUnits="userSpaceOnUse" id="SvgjsClipPath1180">
      <g id="SvgjsG1179">
        <rect x="8.2200003" y="5.48" width="130.3" height="130.3" id="SvgjsRect1178"></rect>
      </g>
    </clipPath>
    <clipPath clipPathUnits="userSpaceOnUse" id="SvgjsClipPath1177">
      <g id="SvgjsG1176">
        <rect x="8.2200003" y="5.48" width="130.3" height="130.3" id="SvgjsRect1175"></rect>
      </g>
    </clipPath>
    <clipPath clipPathUnits="userSpaceOnUse" id="SvgjsClipPath1174">
      <g id="SvgjsG1173">
        <rect x="8.2200003" y="5.48" width="130.3" height="130.3" id="SvgjsRect1172"></rect>
      </g>
    </clipPath>
    <clipPath clipPathUnits="userSpaceOnUse" id="SvgjsClipPath1171">
      <g id="SvgjsG1170">
        <rect x="8.2200003" y="5.48" width="130.3" height="130.3" id="SvgjsRect1169"></rect>
      </g>
    </clipPath>
    <clipPath clipPathUnits="userSpaceOnUse" id="SvgjsClipPath1168">
      <g id="SvgjsG1167">
        <rect x="8.2200003" y="5.48" width="130.3" height="130.3" id="SvgjsRect1166"></rect>
      </g>
    </clipPath>
    <clipPath clipPathUnits="userSpaceOnUse" id="SvgjsClipPath1165">
      <g id="SvgjsG1164">
        <rect x="8.2200003" y="5.48" width="130.3" height="130.3" id="SvgjsRect1163"></rect>
      </g>
    </clipPath>
    <clipPath clipPathUnits="userSpaceOnUse" id="SvgjsClipPath1162">
      <g id="SvgjsG1161">
        <rect x="8.2200003" y="5.48" width="130.3" height="130.3" id="SvgjsRect1160"></rect>
      </g>
    </clipPath>
    <clipPath clipPathUnits="userSpaceOnUse" id="SvgjsClipPath1159">
      <g id="SvgjsG1158">
        <rect x="8.2200003" y="5.48" width="130.3" height="130.3" id="SvgjsRect1157"></rect>
      </g>
    </clipPath>
    <clipPath clipPathUnits="userSpaceOnUse" id="SvgjsClipPath1156">
      <g id="SvgjsG1155">
        <rect x="8.2200003" y="5.48" width="130.3" height="130.3" id="SvgjsRect1154"></rect>
      </g>
    </clipPath>
    <clipPath clipPathUnits="userSpaceOnUse" id="SvgjsClipPath1153">
      <g id="SvgjsG1152">
        <rect x="8.2200003" y="5.48" width="130.3" height="130.3" id="SvgjsRect1151"></rect>
      </g>
    </clipPath>
    <clipPath clipPathUnits="userSpaceOnUse" id="SvgjsClipPath1150">
      <g id="SvgjsG1149">
        <rect x="8.2200003" y="5.48" width="130.3" height="130.3" id="SvgjsRect1148"></rect>
      </g>
    </clipPath>
    <clipPath clipPathUnits="userSpaceOnUse" id="SvgjsClipPath1147">
      <g id="SvgjsG1146">
        <rect x="8.2200003" y="5.48" width="130.3" height="130.3" id="SvgjsRect1145"></rect>
      </g>
    </clipPath>
    <clipPath clipPathUnits="userSpaceOnUse" id="SvgjsClipPath1144">
      <g id="SvgjsG1143">
        <rect x="8.2200003" y="5.48" width="130.3" height="130.3" id="SvgjsRect1142"></rect>
      </g>
    </clipPath>
    <clipPath clipPathUnits="userSpaceOnUse" id="SvgjsClipPath1141">
      <g id="SvgjsG1140">
        <rect x="8.2200003" y="5.48" width="130.3" height="130.3" id="SvgjsRect1139"></rect>
      </g>
    </clipPath>
    <clipPath clipPathUnits="userSpaceOnUse" id="SvgjsClipPath1138">
      <g id="SvgjsG1137">
        <rect x="8.2200003" y="5.48" width="130.3" height="130.3" id="SvgjsRect1136"></rect>
      </g>
    </clipPath>
    <clipPath clipPathUnits="userSpaceOnUse" id="SvgjsClipPath1135">
      <g id="SvgjsG1134" transform="matrix(0.4974942,0.93748924,-0.87902738,0.55215298,106.44028,-48.393302)">
        <polyline points="2.285 37.429 2.285 106.799 62.105 141.486 121.926 106.799 121.926 37.429 62.105 2.743 2.285 37.429" style="mix-blend-mode:normal;fill:none;fill-opacity:1;fill-rule:nonzero;stroke:#ff7900;stroke-width:4;stroke-linecap:round;stroke-linejoin:round;stroke-miterlimit:10;stroke-opacity:1" clip-path="url(#cpMHwxMjQuNDQxfDE0My45OTd8MC4xNDMxMzc=)" id="SvgjsPolyline1133" transform="translate(0.17407108,-0.092996)"></polyline>
      </g>
    </clipPath>
    <clipPath clipPathUnits="userSpaceOnUse" id="SvgjsClipPath1132">
      <g id="SvgjsG1131" transform="matrix(0.4974942,0.93748924,-0.87902738,0.55215298,106.44028,-48.393302)">
        <polyline points="2.285 37.429 2.285 106.799 62.105 141.486 121.926 106.799 121.926 37.429 62.105 2.743 2.285 37.429" style="mix-blend-mode:normal;fill:none;fill-opacity:1;fill-rule:nonzero;stroke:#ff7900;stroke-width:4;stroke-linecap:round;stroke-linejoin:round;stroke-miterlimit:10;stroke-opacity:1" clip-path="url(#cpMHwxMjQuNDQxfDE0My45OTd8MC4xNDMxMzc=)" id="SvgjsPolyline1130" transform="translate(0.17407108,-0.092996)"></polyline>
      </g>
    </clipPath>
  </defs>
  <polyline points="2.285 37.429 2.285 106.799 62.105 141.486 121.926 106.799 121.926 37.429 62.105 2.743 2.285 37.429" style="mix-blend-mode:normal;fill:#ffffff;fill-opacity:1;fill-rule:nonzero;stroke:none;stroke-width:4;stroke-linecap:round;stroke-linejoin:round;stroke-miterlimit:10;stroke-opacity:1" clip-path="none" id="SvgjsPolyline1129" transform="translate(0.174,-0.09303119)"></polyline>
  <path id="SvgjsPath1128" clip-path="none" style="fill:#6aade4;fill-opacity:0.5;stroke:none;stroke-width:1.07;stroke-linecap:round;stroke-linejoin:round;stroke-miterlimit:10" d="M 77.827221 122.20249 L 75.32066 121.27944 L 71.460421 119.81998 L 67.560468 118.38058 L 63.519639 116.99061 L 59.279625 115.66961 L 57.346222 115.158 L 57.748003 115.40611 L 59.238998 115.80011 L 63.480276 117.11055 L 67.509606 118.50042 L 71.419794 119.95047 L 75.27958 121.40045 L 77.683006 122.29308 L 77.827221 122.20249 z " transform="matrix(0.50251842,-0.85321574,0.80000918,0.45277307,-14.773118,112.72771)"></path>
  <path id="SvgjsPath1127" clip-path="none" style="fill:#6aade4;fill-opacity:0.5;stroke:none;stroke-width:1.07;stroke-linecap:round;stroke-linejoin:round;stroke-miterlimit:10" d="M 90.128454 114.47559 L 87.530458 111.62024 L 83.290218 106.14903 L 79.260676 100.35017 L 75.359905 94.34103 L 71.490687 88.270565 L 67.588944 82.259592 L 63.560665 76.45017 L 59.311162 70.970136 L 54.760093 65.970052 L 49.82038 61.570532 L 44.410711 57.920306 L 38.451104 55.140417 L 31.839481 53.370663 L 24.509982 52.750071 L 24.509975 52.879468 L 31.820881 53.499533 L 38.400241 55.260255 L 44.349614 58.029484 L 49.740689 61.679182 L 54.670685 66.060392 L 59.210255 71.060375 L 63.44907 76.520268 L 67.480037 82.330442 L 71.380808 88.339584 L 75.250026 94.410049 L 79.149081 100.42027 L 83.180047 106.23044 L 87.430815 111.69992 L 90.015142 114.54676 L 90.128454 114.47559 z " transform="matrix(0.50251842,-0.85321574,0.80000918,0.45277307,-14.773118,112.72771)"></path>
  <path id="SvgjsPath1126" clip-path="none" style="fill:#d0b972;fill-opacity:0.5;stroke:none;stroke-width:1.07;stroke-linecap:round;stroke-linejoin:round;stroke-miterlimit:10" d="M 90.128454 114.47559 L 87.530458 111.62024 L 83.290218 106.14903 L 79.260676 100.35017 L 75.359905 94.34103 L 71.490687 88.270565 L 67.588944 82.259592 L 63.560665 76.45017 L 59.311162 70.970136 L 54.760093 65.970052 L 49.82038 61.570532 L 44.410711 57.920306 L 38.451104 55.140417 L 31.839481 53.370663 L 24.509982 52.750071 L 24.509975 52.879468 L 31.820881 53.499533 L 38.400241 55.260255 L 44.349614 58.029484 L 49.740689 61.679182 L 54.670685 66.060392 L 59.210255 71.060375 L 63.44907 76.520268 L 67.480037 82.330442 L 71.380808 88.339584 L 75.250026 94.410049 L 79.149081 100.42027 L 83.180047 106.23044 L 87.430815 111.69992 L 90.015142 114.54676 L 90.128454 114.47559 z " transform="matrix(0.50251842,-0.85321574,0.80000918,0.45277307,-14.773118,112.72771)"></path>
  <path id="SvgjsPath1125" clip-path="none" style="fill:#d0b972;fill-opacity:0.5;stroke:none;stroke-width:1.07;stroke-linecap:round;stroke-linejoin:round;stroke-miterlimit:10" d="M 78.045261 122.06553 L 75.349597 121.07083 L 71.491076 119.61029 L 67.579624 118.1708 L 63.550293 116.78093 L 59.298781 115.45982 L 56.730595 114.78299 L 57.561268 115.29148 L 59.219696 115.72922 L 63.459257 117.04075 L 67.490304 118.42954 L 71.388993 119.87949 L 75.24975 121.3313 L 77.743096 122.25533 L 78.045261 122.06553 z " transform="matrix(0.50251842,-0.85321574,0.80000918,0.45277307,-14.773118,112.72771)"></path>
  <path id="SvgjsPath1124" clip-path="none" style="fill:#d0b972;fill-opacity:0.5;stroke:none;stroke-width:1.07;stroke-linecap:round;stroke-linejoin:round;stroke-miterlimit:10" d="M 85.814009 117.18566 L 83.589902 115.78978 L 79.57895 112.98946 L 75.680763 110.06948 L 71.82012 107.12103 L 67.909009 104.18964 L 63.850249 101.35099 L 59.580185 98.67925 L 54.990494 96.220486 L 50.010589 94.070308 L 44.550967 92.280053 L 38.540199 90.909236 L 31.880068 90.048849 L 24.510191 89.749027 L 24.510251 91.00874 L 31.780295 91.310237 L 38.320576 92.160459 L 44.210879 93.489759 L 49.560272 95.249157 L 54.439277 97.360176 L 58.939114 99.770401 L 63.151068 102.41028 L 67.159331 105.20985 L 71.060207 108.13059 L 74.919133 111.08011 L 78.829272 114.00967 L 82.889004 116.85015 L 84.622515 117.93409 L 85.814009 117.18566 z " transform="matrix(0.50251842,-0.85321574,0.80000918,0.45277307,-14.773118,112.72771)"></path>
  <path id="SvgjsPath1123" clip-path="none" style="fill:#6aade4;fill-opacity:0.5;stroke:none;stroke-width:1.07;stroke-linecap:round;stroke-linejoin:round;stroke-miterlimit:10" d="M 87.836459 115.91528 L 83.910065 113.45979 L 79.920848 110.67023 L 76.039019 107.75951 L 72.180093 104.80998 L 68.250907 101.87041 L 64.179223 99.02035 L 59.870614 96.31911 L 55.240595 93.849058 L 50.220428 91.670459 L 44.709498 89.861164 L 38.639517 88.490921 L 31.930247 87.619896 L 24.509515 87.310515 L 24.510191 89.749027 L 31.729379 90.040965 L 38.210739 90.87937 L 44.060422 92.209771 L 49.349696 93.950781 L 54.180826 96.040603 L 58.63943 98.420577 L 62.829196 101.04022 L 66.819838 103.84109 L 70.700242 106.7405 L 74.559622 109.69951 L 78.491043 112.63035 L 82.560038 115.47966 L 85.549614 117.35174 L 87.836459 115.91528 z " transform="matrix(0.50251842,-0.85321574,0.80000918,0.45277307,-14.773118,112.72771)"></path>
  <path id="SvgjsPath1122" clip-path="none" style="fill:#d0b972;fill-opacity:0.5;stroke:none;stroke-width:1.07;stroke-linecap:round;stroke-linejoin:round;stroke-miterlimit:10" d="M 84.953867 117.72595 L 82.879545 118.04016 L 78.820462 118.72951 L 74.899012 119.44959 L 71.039464 120.16984 L 67.14937 120.87999 L 66.781876 120.94238 L 72.400065 124.38594 L 75.174688 123.86866 L 84.953867 117.72595 z " transform="matrix(0.50251842,-0.85321574,0.80000918,0.45277307,-14.773118,112.72771)"></path>
  <path id="SvgjsPath1121" clip-path="none" style="fill:#6aade4;fill-opacity:0.5;stroke:none;stroke-width:1.07;stroke-linecap:round;stroke-linejoin:round;stroke-miterlimit:10" d="M 98.705839 109.08778 L 97.079717 109.03012 L 92.180039 108.79974 L 87.669298 108.53013 L 83.450283 108.24085 L 79.430029 107.92925 L 75.540218 107.60896 L 71.6805 107.2893 L 67.760144 106.9589 L 63.709052 106.64958 L 59.439635 106.36022 L 54.859898 106.09 L 49.900555 105.85072 L 44.470516 105.66051 L 41.735089 105.59166 L 51.624284 111.65266 L 54.561059 111.79035 L 59.070083 112.06104 L 63.289098 112.35032 L 67.310098 112.65901 L 71.199908 112.9793 L 75.060598 113.30079 L 78.979529 113.61988 L 83.030621 113.9292 L 87.299746 114.23095 L 90.241766 114.40441 L 98.705839 109.08778 z " transform="matrix(0.50251842,-0.85321574,0.80000918,0.45277307,-14.773118,112.72771)"></path>
  <path id="SvgjsPath1120" clip-path="none" style="fill:#d0b972;fill-opacity:0.5;stroke:none;stroke-width:1.07;stroke-linecap:round;stroke-linejoin:round;stroke-miterlimit:10" d="M 110.1744 101.88391 L 108.68086 101.76983 L 102.93085 100.9896 L 97.739331 99.980639 L 92.999757 98.770795 L 88.641062 97.390064 L 84.539602 95.859961 L 80.609308 94.229665 L 76.749989 92.530372 L 72.890868 90.779687 L 68.940271 89.020544 L 64.800112 87.309673 L 60.410074 85.680078 L 55.690212 84.179536 L 50.559539 82.871123 L 44.959976 81.779115 L 38.799106 80.949356 L 32.011168 80.430476 L 24.509934 80.249786 L 24.509515 87.310515 L 31.650838 87.490232 L 38.059885 87.980998 L 43.810187 88.748831 L 48.999991 89.758874 L 53.740989 90.98003 L 58.099685 92.36076 L 62.19972 93.879552 L 66.130014 95.509848 L 69.990757 97.220452 L 73.849879 98.971138 L 77.800022 100.7208 L 81.939663 102.43932 L 86.329247 104.05943 L 91.04911 105.55998 L 96.179491 106.88078 L 100.79181 107.77749 L 110.1744 101.88391 z " transform="matrix(0.50251842,-0.85321574,0.80000918,0.45277307,-14.773118,112.72771)"></path>
  <path id="SvgjsPath1119" clip-path="none" style="fill:#6aade4;fill-opacity:0.5;stroke:none;stroke-width:1.07;stroke-linecap:round;stroke-linejoin:round;stroke-miterlimit:10" d="M 121.72022 94.631509 L 114.7202 94.800037 L 107.9107 95.310317 L 101.73053 96.130845 L 96.110895 97.209624 L 90.959413 98.519233 L 86.219304 100.00012 L 81.820505 101.61086 L 77.669955 103.3098 L 73.71013 105.0403 L 69.850138 106.76912 L 65.99938 108.45064 L 62.080635 110.06013 L 58.000096 111.55884 L 53.67374 112.90923 L 62.405177 118.25949 L 64.920035 117.33898 L 69.070585 115.64004 L 73.03041 113.90954 L 76.890402 112.18072 L 80.739443 110.50027 L 84.659905 108.88971 L 88.740897 107.40048 L 93.089798 106.04081 L 97.809744 104.84114 L 102.97909 103.84989 L 108.12963 103.16831 L 121.72022 94.631509 z " transform="matrix(0.50251842,-0.85321574,0.80000918,0.45277307,-14.773118,112.72771)"></path>
  <path id="SvgjsPath1118" clip-path="none" style="fill:#d0b972;fill-opacity:0.5;stroke:none;stroke-width:1.07;stroke-linecap:round;stroke-linejoin:round;stroke-miterlimit:10" d="M 122.23055 85.399921 L 114.79926 85.480462 L 108.08125 85.740405 L 101.99009 86.129053 L 96.449908 86.650115 L 91.390587 87.279282 L 86.721167 88.000447 L 82.369803 88.790379 L 78.26031 89.609044 L 74.309732 90.459723 L 70.450177 91.309378 L 66.589716 92.140071 L 62.639335 92.939357 L 58.49956 93.679389 L 54.081085 94.36011 L 49.280256 94.958743 L 44.019851 95.45055 L 38.189056 95.829457 L 31.719914 96.079556 L 26.313379 96.140699 L 40.624686 104.90977 L 44.750668 104.63982 L 50.28913 104.11984 L 55.350169 103.48959 L 60.02056 102.77026 L 64.369689 101.98905 L 68.480445 101.15983 L 72.429759 100.31971 L 76.289315 99.470055 L 80.149776 98.639362 L 84.100156 97.840076 L 88.239478 97.090564 L 92.661095 96.420075 L 97.459236 95.82069 L 102.71919 95.319402 L 108.54998 94.940496 L 115.01958 94.699877 L 121.73052 94.625038 L 122.22841 94.312295 L 122.23055 85.399921 z " transform="matrix(0.50251842,-0.85321574,0.80000918,0.45277307,-14.773118,112.72771)"></path>
  <polygon points="52.78,58.01 57.01,59.98 61.01,62.16 64.88,64.51 68.7,67 72.56,69.57 76.55,72.16 80.75,74.72 85.24,77.17 90.1,79.42 95.39,81.42 101.19,83.08 107.55,84.33 114.54,85.12 122.23,85.4 122.23,75.48 115.27,75.23 109.07,74.53 103.52,73.43 98.52,72 93.96,70.29 89.73,68.32 85.73,66.14 81.86,63.78 78.04,61.3 74.18,58.73 70.19,56.13 65.99,53.58 61.5,51.13 56.64,48.87 51.35,46.87 45.55,45.22 39.19,43.96 32.2,43.17 24.51,42.9 24.51,52.82 31.46,53.07 37.67,53.77 43.22,54.86 48.22,56.29 " style="fill:#d0b972;fill-opacity:0.5;stroke:none;stroke-width:1.07;stroke-linecap:round;stroke-linejoin:round;stroke-miterlimit:10" id="SvgjsPolygon1117" clip-path="none" transform="matrix(0.50251842,-0.85321574,0.80000918,0.45277307,-14.773118,112.72771)"></polygon>
  <polygon points="86.66,54.36 82.29,54.7 78.17,55.07 74.22,55.45 70.36,55.82 66.51,56.19 62.56,56.54 58.43,56.87 54.02,57.17 49.24,57.44 43.99,57.66 38.17,57.83 31.71,57.93 24.51,57.97 24.51,80.25 31.95,80.21 38.68,80.1 44.78,79.92 50.32,79.69 55.4,79.41 60.08,79.09 64.45,78.74 68.57,78.37 72.52,78 76.38,77.62 80.23,77.25 84.18,76.9 88.31,76.57 92.72,76.27 97.5,76.01 102.75,75.79 108.57,75.62 115.03,75.51 122.23,75.48 122.23,53.2 114.79,53.24 108.06,53.35 101.96,53.52 96.42,53.76 91.34,54.04 " style="fill:#6aade4;fill-opacity:0.5;stroke:none;stroke-width:1.07;stroke-linecap:round;stroke-linejoin:round;stroke-miterlimit:10" id="SvgjsPolygon1116" clip-path="none" transform="matrix(0.50251842,-0.85321574,0.80000918,0.45277307,-14.773118,112.72771)"></polygon>
  <polygon points="52.63,44.52 56.76,45.13 60.66,45.8 64.44,46.53 68.21,47.31 72.07,48.12 76.11,48.95 80.39,49.78 84.99,50.57 89.94,51.3 95.31,51.94 101.16,52.46 107.54,52.86 114.54,53.11 122.23,53.2 122.23,21.7 115.28,21.62 109.08,21.4 103.56,21.06 98.6,20.61 94.11,20.08 89.98,19.47 86.08,18.8 82.3,18.07 78.53,17.29 74.67,16.48 70.63,15.65 66.35,14.83 61.75,14.03 56.8,13.31 51.43,12.67 45.58,12.14 39.2,11.74 32.2,11.49 24.51,11.4 24.51,42.9 31.46,42.98 37.66,43.2 43.18,43.54 48.14,43.99 " style="fill:#6aade4;fill-opacity:0.5;stroke:none;stroke-width:1.07;stroke-linecap:round;stroke-linejoin:round;stroke-miterlimit:10" id="SvgjsPolygon1115" clip-path="none" transform="matrix(0.50251842,-0.85321574,0.80000918,0.45277307,-14.773118,112.72771)"></polygon>
  <rect x="13.65" y="116.52" width="10.86" height="13.34" style="fill:#005172;stroke:none;stroke-width:1.07;stroke-linecap:butt;stroke-linejoin:miter;stroke-miterlimit:10" id="SvgjsRect1114" clip-path="url(#clipPath1467)" transform="matrix(0.50251842,-0.85321574,0.80000918,0.45277307,-14.773118,112.72771)"></rect>
  <path id="SvgjsPath1113" clip-path="none" style="fill:#ff7900;stroke:none;stroke-width:1.07;stroke-linecap:butt;stroke-linejoin:miter;stroke-miterlimit:10" d="M 24.51002 57.969714 L 13.650441 57.969848 L 13.648775 88.37826 L 17.94346 91.010122 L 24.510251 91.00874 L 24.51002 57.969714 z " transform="matrix(0.50251842,-0.85321574,0.80000918,0.45277307,-14.773118,112.72771)"></path>
  <rect x="13.65" y="11.4" width="10.86" height="41.419998" style="fill:#aa272f;stroke:none;stroke-width:1.07;stroke-linecap:butt;stroke-linejoin:miter;stroke-miterlimit:10" id="SvgjsRect1112" clip-path="none" transform="matrix(0.50251842,-0.85321574,0.80000918,0.45277307,-14.773118,112.72771)"></rect>
  <rect x="122.23" y="124.76" width="10.86" height="5.0999999" style="fill:#008a00;stroke:none;stroke-width:1.07;stroke-linecap:butt;stroke-linejoin:miter;stroke-miterlimit:10" id="SvgjsRect1111" clip-path="url(#clipPath1449)" transform="matrix(0.50251842,-0.85321574,0.80000918,0.45277307,-14.773118,112.72771)"></rect>
  <path id="SvgjsPath1110" clip-path="none" style="fill:#005172;stroke:none;stroke-width:1.07;stroke-linecap:butt;stroke-linejoin:miter;stroke-miterlimit:10" d="M 133.09008 21.699371 L 122.2305 21.699506 L 122.23012 94.311217 L 133.09092 87.489108 L 133.09008 21.699371 z " transform="matrix(0.50251842,-0.85321574,0.80000918,0.45277307,-14.773118,112.72771)"></path>
  <path id="SvgjsPath1109" clip-path="none" style="font-weight:bold;font-size:40px;line-height:1.25;-inkscape-font-specification:'sans-serif, Bold';letter-spacing:-6.85px;word-spacing:0px;fill:#005172;fill-opacity:1;stroke:#6aade4;stroke-width:0.865447;stroke-opacity:1" d="M 16.841797 44.916016 C 16.1114 44.900456 15.33328 44.919569 14.507812 44.972656 C 12.864807 45.065092 11.243302 45.320693 9.6425781 45.740234 C 6.4962657 46.564865 4.1028726 47.941351 2.4589844 49.869141 L 2.4589844 59.355469 C 2.7291519 59.656754 3.0254029 59.930958 3.3496094 60.175781 C 4.5612547 61.071024 6.2800713 61.583458 8.5078125 61.710938 C 9.480652 61.770823 10.500424 61.764791 11.566406 61.695312 C 12.640317 61.612093 13.664774 61.561082 14.638672 61.539062 C 15.566053 61.517572 16.306356 61.643094 16.859375 61.917969 C 17.420323 62.179104 17.772931 62.57597 17.917969 63.109375 C 18.074847 63.686324 18.034698 64.164332 17.798828 64.541016 C 17.573847 64.914846 17.248115 65.262463 16.822266 65.583984 C 16.471691 65.839131 15.995507 66.080601 15.392578 66.308594 C 14.789649 66.536588 14.29714 66.700891 13.916016 66.800781 C 12.435074 67.188928 10.813352 67.316376 9.0507812 67.183594 C 7.2990999 67.047957 5.6356134 66.632025 4.0585938 65.9375 L 3.3730469 66.117188 L 4.9570312 71.947266 C 6.4117421 72.149073 7.933928 72.232939 9.5234375 72.201172 C 11.120877 72.155664 12.92689 71.86979 14.941406 71.341797 C 18.425974 70.428511 20.977765 68.961659 22.597656 66.939453 C 24.225477 64.903508 24.713691 62.687851 24.0625 60.292969 C 23.606667 58.616551 22.790358 57.371556 21.613281 56.560547 C 20.444134 55.735797 18.846183 55.264147 16.818359 55.142578 C 15.788113 55.086072 14.835881 55.07836 13.960938 55.121094 C 13.096882 55.160969 12.19324 55.204933 11.25 55.253906 C 9.8118815 55.327627 8.8024791 55.25981 8.2207031 55.050781 C 7.6359671 54.830865 7.2547156 54.400077 7.0800781 53.757812 C 6.9646398 53.333265 7.0163208 52.918206 7.2324219 52.511719 C 7.4455629 52.094346 7.7408113 51.747251 8.1210938 51.472656 C 8.5469427 51.151135 9.007917 50.89086 9.5019531 50.691406 C 10.003919 50.478212 10.516378 50.303008 11.039062 50.166016 C 12.520004 49.777869 14.040919 49.665741 15.601562 49.828125 C 17.170136 49.976768 18.550988 50.314879 19.744141 50.841797 L 20.414062 50.666016 L 18.890625 45.064453 C 18.255299 44.980246 17.572194 44.931576 16.841797 44.916016 z "></path>
  <path d="m 34.187837,60.699878 -1.038946,-3.82093 q -1.165737,0.410489 -2.505283,0.953992 -1.343984,0.527176 -2.000518,0.944143 -0.806553,0.508765 -1.133719,1.171764 -0.315272,0.642389 -0.07996,1.507813 0.155398,0.571507 0.351081,0.905053 0.195682,0.333547 0.676495,0.557377 0.464479,0.228112 1.031564,0.254406 0.562646,0.01 1.673353,-0.281144 0.882032,-0.231176 1.682719,-0.825866 0.817022,-0.59897 1.34321,-1.366608 z m 0.772549,2.841203 q -0.376005,0.483383 -0.940727,1.173658 -0.564721,0.690276 -1.105491,1.146873 -0.75914,0.618785 -1.641335,1.04242 -0.877754,0.439964 -1.988462,0.731074 -2.613428,0.684965 -4.817047,-0.46923 -2.203618,-1.154196 -2.887369,-3.668825 -0.546112,-2.008436 0.0059,-3.517536 0.55205,-1.509099 2.001981,-2.676278 1.433596,-1.162897 3.766658,-2.106737 2.333064,-0.943838 4.890198,-1.771481 l -0.02664,-0.09797 q -0.412914,-1.518575 -1.809691,-1.764723 -1.401217,-0.262477 -3.818638,0.371116 -1.45372,0.381012 -2.961369,1.335916 -1.512088,0.938576 -2.155302,1.40453 l -0.539021,0.141274 -1.203223,-4.425093 q 0.864435,-0.48895 2.86638,-1.363498 2.013838,-0.895156 4.120915,-1.447409 5.014517,-1.314277 7.657725,-0.345265 2.655103,0.948401 3.551971,4.24681 l 3.392113,12.47517 -5.831213,1.528328 z" style="font-weight:bold;font-size:40px;line-height:1.25;-inkscape-font-specification:'sans-serif, Bold';letter-spacing:-6.85px;word-spacing:0px;fill:#005172;fill-opacity:1;stroke:#6aade4;stroke-width:0.865447;stroke-opacity:1" id="SvgjsPath1108" clip-path="none"></path>
  <path d="m 59.422521,59.211293 -5.912882,1.549733 -2.473046,-9.095117 q -0.301916,-1.110355 -0.713729,-2.174415 -0.416254,-1.080388 -0.836009,-1.530131 -0.490956,-0.518543 -1.203458,-0.629172 -0.696168,-0.11491 -1.823209,0.180482 -0.800364,0.20977 -1.562354,0.689363 -0.745658,0.475312 -1.553963,1.299399 l 3.534192,12.99769 -5.880216,1.541172 -4.98605,-18.337194 5.880215,-1.541171 0.550552,2.024766 q 1.235062,-1.635636 2.49485,-2.665517 1.276123,-1.034163 3.040188,-1.496514 2.972775,-0.779148 5.10947,0.515035 2.153027,1.289902 3.089854,4.73527 z" style="font-weight:bold;font-size:40px;line-height:1.25;-inkscape-font-specification:'sans-serif, Bold';letter-spacing:-6.85px;word-spacing:0px;fill:#005172;fill-opacity:1;stroke:#6aade4;stroke-width:0.865447;stroke-opacity:1" id="SvgjsPath1107" clip-path="none"></path>
  <path d="m 78.570466,54.192724 -6.843916,1.793752 -7.316319,-6.636236 -1.072373,2.362662 1.642778,6.04164 -5.880215,1.541172 -6.908545,-25.407545 5.880215,-1.541171 4.124703,15.169414 4.135356,-9.760103 6.778581,-1.776629 -4.449978,9.632655 z" style="font-weight:bold;font-size:40px;line-height:1.25;-inkscape-font-specification:'sans-serif, Bold';letter-spacing:-6.85px;word-spacing:0px;fill:#005172;fill-opacity:1;stroke:#6aade4;stroke-width:0.865447;stroke-opacity:1" id="SvgjsPath1106" clip-path="none"></path>
  <path d="m 91.682161,42.097465 -13.459159,3.52757 q 0.716744,2.121147 2.530261,2.870306 1.829851,0.744876 4.769958,-0.02571 1.862069,-0.488038 3.427762,-1.615587 1.565693,-1.127549 2.36972,-2.160425 l 0.653354,-0.171241 1.283142,4.719011 q -1.77518,1.322394 -3.441566,2.143978 -1.666386,0.821584 -3.80613,1.382399 -5.520869,1.446989 -9.135847,-0.264397 -3.614978,-1.711385 -4.862601,-6.299765 -1.234303,-4.539394 0.823196,-7.912428 2.069391,-3.393644 6.920569,-4.665111 4.475497,-1.173002 7.346731,0.505913 2.866794,1.662586 4.021178,5.908063 z m -6.784374,-1.912759 q -0.550711,-1.832307 -1.669489,-2.53615 -1.118776,-0.703844 -2.948176,-0.224369 -1.698729,0.445227 -2.553345,1.613809 -0.854617,1.168582 -0.456936,3.145952 z" style="font-weight:bold;font-size:40px;line-height:1.25;-inkscape-font-specification:'sans-serif, Bold';letter-spacing:-6.85px;word-spacing:0px;fill:#005172;fill-opacity:1;stroke:#6aade4;stroke-width:0.865447;stroke-opacity:1" id="SvgjsPath1105" clip-path="none"></path>
  <polyline points="2.285 37.429 2.285 106.799 62.105 141.486 121.926 106.799 121.926 37.429 62.105 2.743 2.285 37.429" style="mix-blend-mode:normal;fill:none;fill-opacity:1;fill-rule:nonzero;stroke:#008a00;stroke-width:4;stroke-opacity:1" clip-path="none" id="SvgjsPolyline1104" transform="translate(0.174,-0.09303119)"></polyline>
  <path d="m 98.818768,41.94126 0.95809,-12.950622 6.043552,-1.583981 -3.37707,27.736005 -6.370223,1.6696 1.042663,-7.6201 -12.08846,-16.335753 6.174222,-1.618229 z" style="font-weight:bold;font-size:40px;line-height:1.25;-inkscape-font-specification:'sans-serif, Bold';letter-spacing:-6.85px;word-spacing:0px;fill:#005172;fill-opacity:1;stroke:#6aade4;stroke-width:0.865447;stroke-opacity:1" id="SvgjsPath1103" clip-path="none"></path>
</svg><style>@media (prefers-color-scheme: light) { :root { filter: none; } }
@media (prefers-color-scheme: dark) { :root { filter: none; } }
</style></svg>